<?xml version="1.0" encoding="UTF-8" standalone="no"?>
<svg
   xmlns:dc="http://purl.org/dc/elements/1.1/"
   xmlns:cc="http://creativecommons.org/ns#"
   xmlns:rdf="http://www.w3.org/1999/02/22-rdf-syntax-ns#"
   xmlns:svg="http://www.w3.org/2000/svg"
   xmlns="http://www.w3.org/2000/svg"
   xmlns:xlink="http://www.w3.org/1999/xlink"
   xmlns:sodipodi="http://sodipodi.sourceforge.net/DTD/sodipodi-0.dtd"
   xmlns:inkscape="http://www.inkscape.org/namespaces/inkscape"
   inkscape:version="1.0 (4035a4fb49, 2020-05-01)"
   sodipodi:docname="hat-party.svg"
   id="svg8"
   version="1.1"
   viewBox="0 0 180 180"
   height="180mm"
   width="180mm">
  <defs
     id="defs2" />
  <sodipodi:namedview
     inkscape:window-maximized="0"
     inkscape:window-y="128"
     inkscape:window-x="258"
     inkscape:window-height="1040"
     inkscape:window-width="1418"
     showgrid="false"
     inkscape:document-rotation="0"
     inkscape:current-layer="layer2"
     inkscape:document-units="mm"
     inkscape:cy="927.45735"
     inkscape:cx="163.48426"
     inkscape:zoom="0.24748737"
     inkscape:pageshadow="2"
     inkscape:pageopacity="0.0"
     borderopacity="1.0"
     bordercolor="#666666"
     pagecolor="#ffffff"
     id="base" />
  <metadata
     id="metadata5">
    <rdf:RDF>
      <cc:Work
         rdf:about="">
        <dc:format>image/svg+xml</dc:format>
        <dc:type
           rdf:resource="http://purl.org/dc/dcmitype/StillImage" />
        <dc:title></dc:title>
      </cc:Work>
    </rdf:RDF>
  </metadata>
  <g
     inkscape:label="Layer 2"
     id="layer2"
     inkscape:groupmode="layer">
    <path
       sodipodi:nodetypes="cccsc"
       id="hat-cone"
       d="M 94.536642,65.024936 148.58725,35.164819 129.00809,95.263026 c 0,0 -11.64168,2.41906 -24.49287,-8.92023 -10.428968,-9.20203 -9.978578,-21.31786 -9.978578,-21.31786 z"
       style="fill:COLOR_SECONDARY;fill-opacity:1;stroke:#000000;stroke-width:4;stroke-linecap:butt;stroke-linejoin:miter;stroke-miterlimit:4;stroke-dasharray:none;stroke-opacity:1" />
    <path
       style="fill:COLOR_MONOCHROME;fill-opacity:1;stroke:#000000;stroke-width:3;stroke-linecap:butt;stroke-linejoin:miter;stroke-miterlimit:4;stroke-dasharray:none;stroke-opacity:1"
       d="m 126.15805,43.62637 c 0,0 -3.49349,0.215772 3.32619,3.477372 8.69345,4.15774 14.2875,1.20953 14.2875,1.20953 l -2.64584,8.693445 c 0,0 -6.35,1.20952 -15.7994,-2.948215 -8.33199,-3.66608 -6.35,-5.594042 -6.35,-5.594042 z"
       id="stripe-top"
       sodipodi:nodetypes="csccscc" />
    <path
       sodipodi:nodetypes="csccscc"
       id="stripe-bottom"
       d="m 106.25392,58.221367 c 0,0 -0.0917,4.373509 6.72798,7.635109 8.69345,4.15774 23.7369,3.09941 23.7369,3.09941 l -2.64584,8.69345 c 0,0 -15.7994,-0.68036 -25.2488,-4.8381 -8.33199,-3.66608 -9.751794,-9.75178 -9.751794,-9.75178 z"
       style="fill:COLOR_MONOCHROME;fill-opacity:1;stroke:#000000;stroke-width:3;stroke-linecap:butt;stroke-linejoin:miter;stroke-miterlimit:4;stroke-dasharray:none;stroke-opacity:1" />
    <path
       sodipodi:nodetypes="ccscscscscc"
       id="star-top"
       d="m 132.58492,54.558642 c 0.92392,-1.51947 -1.89173,-5.181413 -1.89173,-5.181413 0,0 2.84595,-4.724552 2.06269,-5.818288 -0.78328,-1.093739 -5.94789,0.46522 -5.94789,0.46522 0,0 -4.31683,-3.46239 -5.40707,-3.274577 -1.09024,0.187811 -1.09826,5.531698 -1.09826,5.531698 0,0 -5.43416,2.570732 -5.4115,4.19042 0.0227,1.619691 5.0626,2.97638 5.0626,2.97638 0,0 0.8895,6.336635 2.10374,6.566275 1.21423,0.22962 5.02677,-4.462335 5.02677,-4.462335 0,0 4.72039,0.23809 5.50065,-0.99338 z"
       style="fill:#ffdc48;fill-opacity:1;stroke:#000000;stroke-width:2;stroke-linecap:butt;stroke-linejoin:miter;stroke-miterlimit:4;stroke-dasharray:none;stroke-opacity:1"
       inkscape:transform-center-x="1.0180427"
       inkscape:transform-center-y="0.59561696" />
    <path
       sodipodi:nodetypes="ccscscscscc"
       id="star-bottom"
       d="m 133.6449,67.057616 c -1.60258,-0.77083 -4.97149,2.38958 -4.97149,2.38958 0,0 -4.98032,-2.37007 -5.99217,-1.48355 -1.01186,0.88652 1.0449,5.87383 1.0449,5.87383 0,0 -3.02344,4.63487 -2.72986,5.70151 0.29358,1.06664 5.61261,0.5518 5.61261,0.5518 0,0 3.09005,5.15658 4.69976,4.97556 1.6097,-0.18103 2.4668,-5.32951 2.4668,-5.32951 0,0 6.2192,-1.50519 6.32894,-2.73606 0.10973,-1.23088 -4.93272,-4.56609 -4.93272,-4.56609 0,0 -0.22488,-4.72104 -1.52677,-5.37707 z"
       style="fill:#ffdc48;fill-opacity:1;stroke:#000000;stroke-width:2;stroke-linecap:butt;stroke-linejoin:miter;stroke-miterlimit:4;stroke-dasharray:none;stroke-opacity:1" />
    <path
       inkscape:transform-center-y="-7.2275517"
       inkscape:transform-center-x="7.2486877"
       style="fill:COLOR_MONOCHROME;fill-opacity:1;stroke:#000000;stroke-width:2;stroke-linecap:butt;stroke-linejoin:miter;stroke-miterlimit:4;stroke-dasharray:none;stroke-opacity:1"
       d="m 148.48638,33.145693 c 0,0 -2.40378,-7.249136 -10.08596,-10.165338 l 8.52236,-5.089474 c 2.89205,5.98059 1.5636,15.254812 1.5636,15.254812 z"
       id="tassle-top-left"
       sodipodi:nodetypes="cccc" />
    <path
       inkscape:transform-center-y="-6.5165966"
       inkscape:transform-center-x="-7.5510719"
       sodipodi:nodetypes="cccc"
       id="tassle-top-right"
       d="m 148.00874,33.490958 c 0,0 5.60581,-8.483074 10.61138,-14.752488 l 6.66901,5.685727 c -7.82241,4.181486 -17.28039,9.066761 -17.28039,9.066761 z"
       style="fill:#ffdc48;fill-opacity:1;stroke:#000000;stroke-width:2;stroke-linecap:butt;stroke-linejoin:miter;stroke-miterlimit:4;stroke-dasharray:none;stroke-opacity:1" />
    <path
       inkscape:transform-center-y="-1.2543624"
       inkscape:transform-center-x="8.3132866"
       sodipodi:nodetypes="cccc"
       id="tassle-left"
       d="m 150.68158,34.085065 c 0,0 -8.94317,-3.333012 -19.22227,2.646825 l 1.12296,-9.404656 c 9.42961,2.256398 18.09931,6.757831 18.09931,6.757831 z"
       style="fill:#ffdc48;fill-opacity:1;stroke:#000000;stroke-width:2;stroke-linecap:butt;stroke-linejoin:miter;stroke-miterlimit:4;stroke-dasharray:none;stroke-opacity:1" />
    <path
       sodipodi:nodetypes="cccc"
       id="tassle-right"
       d="m 149.48795,33.477811 c 0,0 9.33963,-1.298012 17.69875,-0.488416 l -2.22676,8.212279 c -5.89758,-4.5429 -15.47199,-7.723863 -15.47199,-7.723863 z"
       style="fill:COLOR_MONOCHROME;fill-opacity:1;stroke:#000000;stroke-width:2;stroke-linecap:butt;stroke-linejoin:miter;stroke-miterlimit:4;stroke-dasharray:none;stroke-opacity:1" />
    <path
       style="fill:#ffdc48;fill-opacity:1;stroke:#000000;stroke-width:2;stroke-linecap:butt;stroke-linejoin:miter;stroke-miterlimit:4;stroke-dasharray:none;stroke-opacity:1"
       d="m 148.11559,33.26717 c 0,0 8.17642,7.445686 10.14703,14.17299 l -8.44303,2.935741 c 0.6977,-7.257624 -1.704,-17.108731 -1.704,-17.108731 z"
       id="tassle-bottom"
       sodipodi:nodetypes="cccc" />
  </g>
</svg>
