<?xml version="1.0" encoding="UTF-8" standalone="no"?>
<svg
   inkscape:export-ydpi="96"
   inkscape:export-xdpi="96"
   inkscape:export-filename="K:\Images\Artwork\Cryptocurrency\nyano w collar\accessories\linen-hat.png"
   sodipodi:docname="hat-linen.svg"
   inkscape:version="1.1.1 (c3084ef, 2021-09-22)"
   id="svg8"
   version="1.1"
   viewBox="0 0 150 150"
   height="150mm"
   width="150mm"
   xmlns:inkscape="http://www.inkscape.org/namespaces/inkscape"
   xmlns:sodipodi="http://sodipodi.sourceforge.net/DTD/sodipodi-0.dtd"
   xmlns="http://www.w3.org/2000/svg"
   xmlns:svg="http://www.w3.org/2000/svg"
   xmlns:rdf="http://www.w3.org/1999/02/22-rdf-syntax-ns#"
   xmlns:cc="http://creativecommons.org/ns#"
   xmlns:dc="http://purl.org/dc/elements/1.1/">
  <defs
     id="defs2" />
  <sodipodi:namedview
     inkscape:window-maximized="0"
     inkscape:window-y="345"
     inkscape:window-x="2560"
     inkscape:window-height="1067"
     inkscape:window-width="1792"
     showgrid="false"
     inkscape:document-rotation="0"
     inkscape:current-layer="layer1"
     inkscape:document-units="mm"
     inkscape:cy="272.14286"
     inkscape:cx="198.57143"
     inkscape:zoom="0.7"
     inkscape:pageshadow="2"
     inkscape:pageopacity="0.0"
     borderopacity="1.0"
     bordercolor="#666666"
     pagecolor="#ffffff"
     id="base"
     inkscape:pagecheckerboard="0" />
  <metadata
     id="metadata5">
    <rdf:RDF>
      <cc:Work
         rdf:about="">
        <dc:format>image/svg+xml</dc:format>
        <dc:type
           rdf:resource="http://purl.org/dc/dcmitype/StillImage" />
        <dc:title />
      </cc:Work>
    </rdf:RDF>
  </metadata>
  <g
     id="layer1"
     inkscape:groupmode="layer"
     inkscape:label="Layer 1">
    <path
       sodipodi:nodetypes="sscssscss"
       id="hat"
       d="m 70.482386,42.914281 c -18.438343,2.38724 -26.931924,4.49239 -25.324405,22.67858 0.48457,5.48204 -1.511903,10.58333 -1.511903,10.58333 0,0 -13.607142,4.53571 -19.654762,6.80357 -6.047619,2.26785 0.0571,34.008619 54.428571,23.434529 66.176723,-12.869969 44.979163,-33.639881 43.089283,-34.017861 -10.90703,-2.18141 -20.41071,-5.291668 -20.41071,-5.291668 0,0 -1.265904,-4.026047 -3.240589,-10.32086 -4.886684,-15.577556 -7.58836,-16.431484 -27.375485,-13.86962 z"
       style="fill:#d3c4ab;fill-opacity:1;stroke:#000000;stroke-width:4;stroke-linecap:butt;stroke-linejoin:miter;stroke-miterlimit:4;stroke-dasharray:none;stroke-opacity:1" />
    <path
       sodipodi:nodetypes="csc"
       id="stripe"
       d="m 44.024053,75.892879 c 0,0 2.026311,2.130452 24.315723,0 22.289417,-2.130452 32.758684,-8.788118 32.758684,-8.788118"
       style="fill:none;stroke:#000000;stroke-width:4;stroke-linecap:butt;stroke-linejoin:miter;stroke-miterlimit:4;stroke-dasharray:none;stroke-opacity:1" />
    <!--    <path-->
    <!--       sodipodi:nodetypes="cc"-->
    <!--       id="path847"-->
    <!--       d="m 30.946078,92.277971 8.239882,5.14047"-->
    <!--       style="fill:none;stroke:#000000;stroke-width:3;stroke-linecap:butt;stroke-linejoin:miter;stroke-miterlimit:4;stroke-dasharray:none;stroke-opacity:1" />-->
    <!--    <path-->
    <!--       sodipodi:nodetypes="cc"-->
    <!--       id="path849"-->
    <!--       d="m 45.460363,99.459521 10.583334,1.511899"-->
    <!--       style="fill:none;stroke:#000000;stroke-width:3;stroke-linecap:butt;stroke-linejoin:miter;stroke-miterlimit:4;stroke-dasharray:none;stroke-opacity:1" />-->
    <!--    <path-->
    <!--       sodipodi:nodetypes="cc"-->
    <!--       id="path851"-->
    <!--       d="M 62.922863,100.59345 73.506196,99.610711"-->
    <!--       style="fill:none;stroke:#000000;stroke-width:3;stroke-linecap:butt;stroke-linejoin:miter;stroke-miterlimit:4;stroke-dasharray:none;stroke-opacity:1" />-->
    <!--    <path-->
    <!--       style="fill:none;stroke:#000000;stroke-width:3;stroke-linecap:butt;stroke-linejoin:miter;stroke-miterlimit:4;stroke-dasharray:none;stroke-opacity:1"-->
    <!--       d="m 80.61215,98.325591 10.583341,-2.57024"-->
    <!--       id="path851-5"-->
    <!--       sodipodi:nodetypes="cc" />-->
    <path
       style="fill:none;stroke:#000000;stroke-width:4;stroke-linecap:butt;stroke-linejoin:miter;stroke-miterlimit:4;stroke-dasharray:8, 8;stroke-dashoffset:16;stroke-opacity:1"
       d="M 30.994048,81.264881 C 36.833907,98.344801 49.393667,99.66192 76.573931,95.834072 92.260998,93.624833 112.826,86.486749 124.35417,75.595237"
       id="stiching"
       sodipodi:nodetypes="csc" />
    <path
       sodipodi:nodetypes="cssssc"
       id="underside"
       d="m 81.506756,105.7947 c 0,0 9.835513,-6.452939 10.510937,-12.393143 1.024966,-9.014328 10.335057,-15.213029 19.173947,-19.322535 10.32416,-4.800055 19.51166,-9.463376 20.29712,-1.087828 0.59338,6.327474 -5.33429,14.16348 -14.09037,20.96143 -8.96294,6.958556 -35.891634,11.842076 -35.891634,11.842076 z"
       style="fill:#948d81;fill-opacity:1;stroke:#000000;stroke-width:4;stroke-linecap:butt;stroke-linejoin:miter;stroke-miterlimit:4;stroke-dasharray:none;stroke-opacity:1" />
  </g>
</svg>
