<?xml version="1.0" encoding="UTF-8" standalone="no"?>
<svg
   xmlns:dc="http://purl.org/dc/elements/1.1/"
   xmlns:cc="http://creativecommons.org/ns#"
   xmlns:rdf="http://www.w3.org/1999/02/22-rdf-syntax-ns#"
   xmlns:svg="http://www.w3.org/2000/svg"
   xmlns="http://www.w3.org/2000/svg"
   xmlns:sodipodi="http://sodipodi.sourceforge.net/DTD/sodipodi-0.dtd"
   xmlns:inkscape="http://www.inkscape.org/namespaces/inkscape"
   inkscape:version="1.0 (4035a4fb49, 2020-05-01)"
   sodipodi:docname="paper-boat-hat.svg"
   xml:space="preserve"
   style="enable-background:new 0 0 512 512;"
   viewBox="0 0 512 512"
   y="0px"
   x="0px"
   id="Layer_1"
   version="1.1"><metadata
   id="metadata111"><rdf:RDF><cc:Work
       rdf:about=""><dc:format>image/svg+xml</dc:format><dc:type
         rdf:resource="http://purl.org/dc/dcmitype/StillImage" /><dc:title></dc:title></cc:Work></rdf:RDF></metadata><defs
   id="defs109" /><sodipodi:namedview
   inkscape:current-layer="g1093"
   inkscape:window-maximized="1"
   inkscape:window-y="-8"
   inkscape:window-x="-8"
   inkscape:cy="234.49932"
   inkscape:cx="-30.577164"
   inkscape:zoom="0.58695387"
   showgrid="false"
   id="namedview107"
   inkscape:window-height="1017"
   inkscape:window-width="1920"
   inkscape:pageshadow="2"
   inkscape:pageopacity="0"
   guidetolerance="10"
   gridtolerance="10"
   objecttolerance="10"
   borderopacity="1"
   bordercolor="#666666"
   pagecolor="#ffffff" />
<style
   id="style2"
   type="text/css">
	.st0{fill:#BA8632;}
	.st1{fill:#F7D5AD;}
	.st2{fill:#F3C4B9;}
	.st3{display:none;}
	.st4{display:inline;fill:#544C3B;}
	.st5{display:inline;fill:#FFFFFF;}
	.st6{display:inline;fill:#F3C4B9;}
	.st7{display:inline;}
	.st8{fill:#6A5F6B;}
	.st9{fill:#6E5D6D;}
	.st10{display:inline;fill:#6A5F6B;}
	.st11{display:inline;fill:#AD7496;}
	.st12{fill:none;stroke:#EB8F78;stroke-width:7;stroke-linecap:round;stroke-miterlimit:10;}
	.st13{fill:#D7A29C;}
	.st14{display:inline;fill:#001C2E;}
	.st15{display:none;fill:none;stroke:#000000;stroke-width:7;stroke-miterlimit:10;}
	.st16{display:none;fill:none;stroke:#010000;stroke-width:7;stroke-miterlimit:10;}
	.st17{display:none;fill:none;stroke:#010000;stroke-width:7;stroke-linecap:round;stroke-miterlimit:10;}
	.st18{fill:#DDD5DA;}
	.st19{fill:none;stroke:#000000;stroke-width:10;stroke-linecap:round;stroke-miterlimit:10;}
	.st20{fill:#97C6D9;stroke:#000000;stroke-width:7;stroke-miterlimit:10;}
	.st21{fill:#FFFFFF;}
</style>
<g
   id="b5">
	<path
   d="M256.7,394.4h-0.3c-3.8-0.6-7.2-1.2-10.2-1.8c-85.7-15.9-117.9-50.7-119.2-52.2l-1.5-1.6l5.4-13   l-10.7-9.8l12.2-14.2c-1-17.5,9.6-46.3,11.8-52.1c-12.4-57.7,15.1-100.2,16.2-102l1.6-2.4l2.6,1.1c21.3,9,47.5,35.7,54.3,42.9   c0.3-0.1,0.7-0.2,1.1-0.4c1-0.4,2.1-0.7,3.3-1.1c1.2-0.4,2.3-0.7,3.5-1.1l0.4-0.1c0.8-0.2,1.6-0.4,2.4-0.6c2.5-0.6,4.9-1.1,7.4-1.6   c1.2-0.2,2.5-0.4,4-0.7c1.3-0.2,2.8-0.4,4.5-0.6c2.5-0.3,5-0.4,7.4-0.5c0.7,0,1.4-0.1,2.2-0.1c0.5,0,1.1,0,1.7,0s1.2,0,1.8,0h0.8   c0.5,0,0.9,0,1.3,0c2,0.1,3.9,0.2,5.7,0.3c2,0.2,4.1,0.4,6.1,0.7c1.3,0.2,2.7,0.4,4,0.7c1.2,0.2,2.3,0.4,3.4,0.7l3.1,0.6v0.1   l0.9,0.2c0.6,0.1,1.1,0.3,1.7,0.4l1.2,0.3c1.2,0.4,2.3,0.7,3.4,1c1.4,0.4,2.5,0.8,3.4,1.1c0.3,0.1,0.7,0.2,1,0.4   c6.8-7.2,33-33.9,54.3-42.9l2.7-1.1l1.6,2.4c1.2,1.8,28.6,44.3,16.2,102c2.2,5.8,12.8,34.5,11.8,52.1l12.2,14.2l-10.8,9.8l5.4,13   l-1.5,1.6c-1.3,1.5-33.5,36.3-119.2,52.2c-2.9,0.6-6.2,1.1-10.1,1.8h-0.3h-0.2V394.4z"
   class="st0"
   id="b1_9_" />
	<path
   id="path5"
   d="M293.6,361.5c-7.2,5.3-18.4,4.2-18.4,4.2c-3.8,11.8-15.5,12.2-17.9,12.1h-0.1c-2.3,0.1-14.1-0.3-17.9-12.1   c0,0-11.2,1.1-18.4-4.2c-9.5-7.1-21.6-24.8-2.1-34.8c6.4-3.3,12.7-5.4,18.5-9.3c5-3.3,13.3-6.6,13.4-84.6c0-5.8,4-7.9,6.1-8.6   c0.3-0.1,0.5-0.1,0.7-0.2c0.2,0,0.4,0.1,0.7,0.2c2.1,0.7,6.1,2.8,6.1,8.6c0.1,78.1,8.3,81.3,13.3,84.6c5.8,3.9,12.1,6,18.5,9.3   C315.3,336.6,303.1,354.4,293.6,361.5z"
   class="st1" />
	<path
   id="path7"
   d="M318.1,206.2c0,0,3.2,6.8,10,7.8c6.8,0.9,17.8-9.6,17.8-9.6l-6.8,19.2h11l-3.7,8.7l11,10.5   c0,0,14.2-47.9-9.1-83.1L318.1,206.2z"
   class="st2" />
	<path
   id="path9"
   d="M195.8,206.2c0,0-3.2,6.8-10,7.8c-6.8,0.9-17.8-9.6-17.8-9.6l6.8,19.2h-11l3.7,8.7l-11,10.5   c0,0-14.2-47.9,9.1-83.1L195.8,206.2z"
   class="st2" />
</g>
<g
   class="st3"
   id="b10">
	<path
   id="path12"
   d="M419.6,326.5c-37.2,60.4-138.7,67.4-161.1,68.3c-0.8,0-1.6,0-2.2,0.1h-0.1c-0.6,0-1.3,0-2.2-0.1   c-22.4-0.8-123.9-7.9-161.1-68.3c0,0,12.3-2.1,14.3-7.8c0.9-2.5-9.4-6.8-8-10.1c6.7-16.6,19.1-42.2,39.5-65.9   C105,115.5,185.4,195,203,195.1c15.7-6.5,27-9.6,54.1-9.6s37,3.1,52.7,9.5c18.3-1.2,97.2-78.4,63.8,47.2   c20.9,24.2,33.5,50.3,40.1,67c1.2,3.1-9.6,6.5-8.8,8.9C406.8,323.8,419.6,326.5,419.6,326.5z"
   class="st4" />
	<path
   id="path14"
   d="M421.1,326.5c-40.6,63.9-159.8,68.1-164,68.3l0,0c0,0,0,0-0.1,0c-4.1-0.1-123.4-4.3-164-68.2   c0,0,100.1,59.2,120.3,14.4c14.6-32.3,42.9-30,43.7-30.2c0.8,0.2,30.8-2.1,45.3,30.2C322.6,385.7,421.1,326.5,421.1,326.5z"
   class="st5" />
	<path
   id="path16"
   d="M183.3,207.5c-0.2-4.7-3.1-15.5-24.1-24.6c-17.4-7.5-25.5,5.3-11.5,54C157.7,226.1,169.5,215.9,183.3,207.5z"
   class="st6" />
	<path
   id="path18"
   d="M329,206.5c0.2-4.7,3.1-15.5,24.1-24.6c17.4-7.5,25.5,5.3,11.5,54C354.7,225.1,342.9,214.9,329,206.5z"
   class="st6" />
</g>
<g
   class="st3"
   id="b14_1_">
	<g
   id="g29"
   class="st7">
		<path
   id="path21"
   d="M230.3,187.2c0,0-10.7,7.9-31.9,0.4c-7.5-2.6-66.2-18-66.2-18s-4.9,54.4,9.5,77.9    c13.6,22.2,19.3,25.2,19.3,25.2S233.9,264.3,230.3,187.2z"
   class="st8" />
		<path
   id="path23"
   d="M185.2,201.2c0,0-9.8-13.8-45.5-22.8c-3.3-0.8,1.1,51.5,12.5,67.1c5.5,7.5,8.8,15.8,12.9,7.2    c4.2-8.6,26-39.2,26-39.2S195.5,210.1,185.2,201.2z"
   class="st2" />
		<path
   id="path25"
   d="M190.8,212.7c0,0-2.1-6.2-18.7-3.3c0,0,11.4,3.4,15.1,7.6S190.8,212.7,190.8,212.7z"
   class="st8" />
		<polygon
   id="polygon27"
   points="184,220 169.4,215.9 180.4,223.8   "
   class="st9" />
	</g>
	<g
   id="g39"
   class="st7">
		<path
   id="path31"
   d="M282.4,187.2c0,0,10.7,7.9,31.9,0.4c7.5-2.6,66.2-18,66.2-18s4.9,54.4-9.5,77.9    c-13.6,22.2-19.3,25.2-19.3,25.2S278.8,264.3,282.4,187.2z"
   class="st8" />
		<path
   id="path33"
   d="M327.4,201.2c0,0,9.8-13.8,45.5-22.8c3.3-0.8-1.1,51.5-12.5,67.1c-5.5,7.5-8.8,15.8-12.9,7.2    c-4.1-8.6-26-39.2-26-39.2S317.2,210.1,327.4,201.2z"
   class="st2" />
		<path
   id="path35"
   d="M321.9,212.7c0,0,2.1-6.2,18.7-3.3c0,0-11.4,3.4-15.1,7.6C321.9,221.1,321.9,212.7,321.9,212.7z"
   class="st8" />
		<polygon
   id="polygon37"
   points="328.7,220 343.2,215.9 332.3,223.8   "
   class="st9" />
	</g>
	<path
   id="path41"
   d="M257,392c-0.1,0-0.1,0-0.1,0c-0.1,0-0.2-0.1-0.3-0.4c-0.1,0.3-0.2,0.4-0.3,0.4c0,0,0,0-0.1,0   c-3,0-144.4,3.2-127.7-83.3c13.4-69.5,78.1-125,127.5-126.5c0.2,0,0.4,0,0.6,0h0.2c0.2,0,0.4,0,0.6,0   c49.4,1.5,115.7,56.9,129.1,126.5C403.1,395.2,260,392,257,392z"
   class="st10" />
	<path
   id="path43"
   d="M384.8,339.9C362,395.8,264.2,392.4,256.5,392c-7.7,0.4-103.7,4-126.6-51.9c1.1,0.8,74.2,53.6,115.6-59.5   c3.1-8.5,8.7-7.8,11-8c2,0.1,7.9-0.6,11,8C308.9,393.8,383.7,340.7,384.8,339.9z"
   class="st5" />
</g>
<g
   class="st3"
   id="b20">
	<path
   id="path46"
   d="M371.6,227c0.3,0,2.7-55.7-17.2-88.1c-12.3-20-56.1,49.1-55.9,49.2c-12.8-3.3-26.6-5.3-41.5-5.4   c-0.2,0-0.3,0-0.5,0s-0.3,0-0.5,0c-14.5,0.1-28,2-40.5,5.1c0,0-43.9-69-56.1-49c-19.9,32.5-17.9,88.1-17.9,88.1   c-33.3,28.4-50.1,60-50.1,60s22.4,92.2,165.1,107.4C391.3,385.6,422,286.9,422,286.9S405.1,255.4,371.6,227z"
   class="st11" />
	<path
   id="path48"
   d="M423.9,285c-32.1,97.9-163.8,107.2-166.8,107.4l0,0c-3-0.2-134.7-9.5-166.8-107.4   c1.5,2.1,67.6,96.2,166.8,18.1l0,0l0,0C356.3,381.2,422.4,287.1,423.9,285z"
   class="st5" />
	<path
   id="path50"
   d="M152.1,220.1c0,0-7.7-56.9,13.6-72.1c13-9.3,38,36.1,33.7,47C197.6,197.3,186.2,195.7,152.1,220.1z"
   class="st6" />
	<path
   id="path52"
   d="M360.3,220.1c0,0,7.7-56.9-13.6-72.1c-13-9.3-38,36.1-33.7,47C314.8,197.3,326.2,195.7,360.3,220.1z"
   class="st6" />
</g>
<g
   id="m11">
	<path
   id="path55"
   d="M257.7,329.5c0,0,1.7,9.9-2.3,16.6c-7.4,12.4-35.8,19.5-35.8-9.5"
   class="st12" />
	<path
   id="path57"
   d="M258,329.5c0,0-1.7,9.9,2.3,16.6c7.4,12.4,35.8,19.5,35.8-9.5"
   class="st12" />
	<path
   id="path59"
   d="M269.1,322.8c0,0-5.6,6.3-11.3,6.7c-0.1,0-0.2,0-0.3,0c-0.1,0-0.2,0-0.3,0c-5.7-0.4-11.3-6.7-11.3-6.7   c0-7.9,8.5-8.7,11.3-8.7c0.1,0,0.2,0,0.2,0c0.2,0,0.4,0,0.6,0C261,314.1,269.1,315.1,269.1,322.8z"
   class="st13" />
</g>
<g
   class="st3"
   id="h1">
	<path
   id="path62"
   d="M273.7,186.1v29.7c-0.1,6.1,4.8,11.1,10.9,11.2c6.1,0.1,11.1-4.8,11.2-10.9c0-0.1,0-0.2,0-0.4l-0.1-23.8   c-3.6-1.4-7.2-2.7-11-3.7C279.6,187,274.4,186.2,273.7,186.1z"
   class="st14" />
	<path
   id="path64"
   d="M245.9,185.4v41.9c0,6.1,5,11.1,11.1,11.1s11.1-5,11.1-11.1v-42c-1.1-0.1-5.8-0.5-11.1-0.5   C252.2,184.8,247.2,185.3,245.9,185.4z"
   class="st14" />
	<path
   id="path66"
   d="M218.2,192v23.8c0,6.1,5,11.1,11.1,11.1s11.1-5,11.1-11.1v-29.7c-3.9,0.6-7.7,1.4-11.5,2.4   C225.2,189.5,221.7,190.7,218.2,192z"
   class="st14" />
</g>
<path
   d="M350.5,149.6c0,0,28.3,42.9,15.5,100.4c0,0,13.7,34.7,11.9,52.9l11,12.8l-10.1,9.1l5.5,13.2  c0,0-31.7,35.3-117.3,51.1c-3.2,0.6-6.6,1.2-10,1.8l0,0c-3.4-0.5-6.8-1.1-10.1-1.8C161.3,373.3,129.6,338,129.6,338l5.5-13.2  l-10-9.1l10.9-12.8c-1.8-18.3,11.9-52.9,11.9-52.9c-12.8-57.5,15.5-100.4,15.5-100.4c23.7,10,54.8,43.8,54.8,43.8  c0.1,0,0.1-0.1,0.2-0.1c0.2-0.1,0.4-0.1,0.6-0.2c0.1-0.1,0.3-0.1,0.4-0.2c0.5-0.2,1.2-0.5,2-0.7c0.9-0.3,2-0.7,3.2-1.1  c1.1-0.4,2.2-0.7,3.4-1c0.9-0.2,1.7-0.5,2.6-0.7c2.2-0.5,4.6-1.1,7.3-1.5c1.3-0.2,2.6-0.5,3.9-0.6c1.5-0.2,3-0.4,4.4-0.6  c2.4-0.3,4.8-0.4,7.2-0.5c0.7,0,1.4-0.1,2.1-0.1c0.6,0,1.1,0,1.7,0s1.1,0,1.7,0c0.7,0,1.4,0,2.1,0.1c1.8,0.1,3.7,0.2,5.6,0.3  c1.9,0.2,3.9,0.4,6,0.7c1.3,0.2,2.6,0.4,3.9,0.7c1.3,0.2,2.5,0.5,3.7,0.7l0,0c1.2,0.3,2.4,0.5,3.6,0.8c0.9,0.2,1.8,0.5,2.6,0.7  c1.2,0.4,2.4,0.7,3.4,1c1.3,0.4,2.3,0.7,3.2,1.1c0.8,0.3,1.5,0.5,2,0.7c0.1,0.1,0.3,0.1,0.4,0.2c0.2,0.1,0.4,0.2,0.5,0.2  c0.1,0.1,0.2,0.1,0.2,0.1S326.8,159.6,350.5,149.6 M160.8,141l-3.2,4.8c-0.3,0.5-7.7,11.8-13.4,30.4c-5.1,16.7-9.8,42.9-3.5,73.2  c-2.8,7.4-12.1,33.7-11.7,51.1l-9.1,10.6l-4.4,5.1l5,4.5l6.4,5.9l-3.6,8.7l-1.7,4l2.9,3.2c1.4,1.5,34.3,37.2,121.1,53.3  c3,0.6,6.4,1.2,10.3,1.8l0.5,0.1h1.1l0.6-0.1c3.9-0.6,7.2-1.2,10.2-1.8c86.9-16.1,119.8-51.8,121.1-53.3l2.9-3.2l-1.7-4l-3.6-8.7  l6.5-5.9l5-4.5l-4.4-5.1l-9.1-10.6c0.4-17.5-8.9-43.7-11.7-51.1c6.3-30.3,1.6-56.5-3.6-73.2c-5.7-18.7-13.1-30-13.4-30.4l-3.2-4.8  l-5.3,2.2c-20.5,8.6-45.2,33-53.9,42.1c-0.7-0.2-1.5-0.5-2.4-0.8c-1.1-0.4-2.3-0.7-3.5-1.1h-0.1h-0.1h-0.1c-0.3-0.1-0.6-0.2-1-0.3  l0,0V183l-5.5-1.1l-0.3-0.1c-1.1-0.2-2.3-0.5-3.5-0.7c-1.4-0.3-2.8-0.5-4.1-0.7l0,0l0,0c-2.1-0.3-4.2-0.6-6.3-0.7  c-1.9-0.2-3.9-0.3-5.9-0.4c-0.5,0-0.9,0-1.4,0h-0.8c-0.6,0-1.3,0-1.9,0s-1.2,0-1.8,0c-0.7,0-1.4,0-2.2,0.1c-2.5,0.1-5,0.2-7.6,0.5  c-1.9,0.2-3.3,0.4-4.7,0.6c-1.4,0.2-2.8,0.4-4.1,0.7c-2.5,0.4-5,1-7.6,1.6c-0.9,0.2-1.7,0.4-2.4,0.6l-0.4,0.1  c-1.3,0.3-2.5,0.7-3.6,1.1c-0.8,0.3-1.6,0.5-2.4,0.8c-8.8-9.1-33.5-33.4-53.9-42.1L160.8,141z"
   id="b1_x5F_b8_x5F_outline" />
<path
   d="M419.6,326.5c-37.2,60.4-138.7,67.4-161.1,68.3c-0.8,0-1.6,0-2.2,0.1h-0.1  c-0.6,0-1.3,0-2.2-0.1c-22.4-0.8-123.9-7.9-161.1-68.3c0,0,12.3-2.1,14.3-7.8c0.9-2.5-9.4-6.8-8-10.1c6.7-16.6,19.1-42.2,39.5-65.9  C105,115.5,185.4,195,203,195.1c15.7-6.5,27-9.6,54.1-9.6s37,3.1,52.7,9.5c18.3-1.2,97.2-78.4,63.8,47.2  c20.9,24.2,33.5,50.3,40.1,67c1.2,3.1-9.6,6.5-8.8,8.9C406.8,323.8,419.6,326.5,419.6,326.5z"
   class="st15"
   id="b9_x5F_b13_x5F_outline" />
<path
   d="M384,308.7c-3.5-18.2-10.5-35.4-19.8-50.9c1.9-2.8,4.1-6.2,6.5-10.2  c14.4-23.6,9.5-77.9,9.5-77.9s-58.7,15.4-66.2,18c-10.9,3.9-19.1,3.6-24.4,2.5c-2.5-1.1-5-2-7.4-2.9l0,0c-8.5-3-16.9-4.7-24.9-5l0,0  c-0.2,0-0.4,0-0.6,0h-0.2c-0.1,0-0.2,0-0.3,0s-0.2,0-0.3,0h-0.2c-0.2,0-0.4,0-0.6,0l0,0c-8,0.3-16.4,2-24.9,5l0,0  c-2.5,0.9-5,1.8-7.4,2.9c-5.3,1.1-13.5,1.4-24.4-2.5c-7.5-2.6-66.2-18-66.2-18s-4.9,54.4,9.5,77.9c2.4,4,4.6,7.3,6.5,10.2  c-9.3,15.5-16.3,32.7-19.8,50.9c-5.8,29.8,7.2,49,26.8,61.3c36.4,24.2,93.6,22.4,100.9,22.1c7.4,0.3,64.6,2.1,100.9-22.1  C376.8,357.6,389.8,338.5,384,308.7z"
   class="st16"
   id="b14-b18_x5F_outline" />
<path
   d="M354.4,138.8c-12.3-20-55.9,49.2-55.9,49.2c-12.8-3.3-26.7-5.3-41.5-5.4  c-0.2,0-0.3,0-0.5,0s-0.3,0-0.5,0c-14.5,0.1-28,2-40.5,5.1c0,0-43.9-69-56.1-49c-19.9,32.5-17.9,88.1-17.9,88.1  c-33.2,28.3-50.1,60-50.1,60s22.4,92.2,165.1,107.4C391.3,385.5,422,286.8,422,286.8s-16.7-31.6-50.1-60  C371.6,227,374.3,171.3,354.4,138.8z"
   class="st17"
   id="b19_x5F_outline" />
<g
   class="st3"
   id="e4_2_">
	<g
   class="st7"
   id="e4">
		<path
   id="path73"
   d="M181.9,297.5c0,9.4,7.6,17,17,17s17-7.6,17-17s-7.6-17-17-17l0,0C189.5,280.5,181.9,288.1,181.9,297.5z" />
		<circle
   id="circle75"
   r="6.5"
   cy="289"
   cx="200.4"
   class="st18" />
	</g>
	<g
   class="st7"
   id="e4_1_">
		<path
   id="path78"
   d="M299.7,299.4c0,9.4,7.6,17,17,17s17-7.6,17-17s-7.6-17-17-17l0,0C307.3,282.4,299.7,290,299.7,299.4z" />
		<circle
   id="circle80"
   r="6.5"
   cy="291"
   cx="318.1"
   class="st18" />
	</g>
</g>
<g
   id="e12">
	<path
   d="M340.6,299.4c0,0-23.6-20-44.9-1.9"
   class="st19"
   id="e4_3_" />
	<path
   d="M175.7,299.4c0,0,23.6-20,44.9-1.9"
   class="st19"
   id="e5_3_" />
	<path
   id="path86"
   d="M379.5,264.1c-1.6-6-5.3-11.5-5.3-11.5c-8.3-21.6-111-5.2-116.9-4.2l0,0c-6-1-108.6-17.4-116.9,4.2c0,0-3.7,5.5-5.3,11.5   s-9.9,7.3-9.9,7.3v15.4c0,0,6.5,1,7.6,10.2c1,9.2,10.4,47.8,54.1,47c43.6-0.8,51.4-28.3,56.1-38.1c1.7-3.5,5.8-28.5,14.3-30.1   c8.5,1.6,12.6,26.7,14.3,30.1c4.8,9.8,12.5,37.4,56.1,38.1c43.6,0.8,53-37.9,54.1-47c1-9.1,7.6-10.2,7.6-10.2v-15.4   C389.4,271.5,381.1,270.1,379.5,264.1z M226.6,317.6c-15.9,19.7-35.8,20.5-50.9,16.5c-2.5-0.7-16.4-3.9-24.4-13.1   c-8.8-10.2-11.6-26.3-12-28.9c-2.6-16.1,3.9-27.2,8.1-36.1c5.2-10.8,47.2-7.4,47.2-7.4s9.1,0.4,25.9,3.1c16.8,2.7,18,6.9,19.1,22.4   C240.8,289.6,234.2,308.2,226.6,317.6z M374.4,292.1c-0.4,2.6-3.2,18.8-12,28.9c-8,9.2-22,12.4-24.4,13.1c-15.2,4-35,3.2-50.9-16.5   c-7.6-9.4-14.2-28-13-43.5c1.1-15.5,2.4-19.8,19.1-22.4c16.8-2.7,25.9-3.1,25.9-3.1s42.1-3.4,47.2,7.4   C370.5,264.9,377.1,276,374.4,292.1z" />
</g>
<g
   class="st3"
   id="e22">
	<g
   id="g95"
   class="st7">
		<path
   id="path89"
   d="M232.2,313.4c0,0-2.5-28.4-16.6-44.5c-2.3-2.6-17.4-22.3-41.6-15.3c-21.8,6.3-29.3,20.6-29.3,20.6    s-3.7,23.2,29.3,42.1C198.7,330.4,232.2,313.4,232.2,313.4z"
   class="st20" />
		<path
   id="path91"
   d="M171.8,255.9c0,0-3.5,53.4,21.3,52.8c24.8-0.5,22.4-41.9,22.4-41.9S201.5,244.5,171.8,255.9z" />
		<ellipse
   id="ellipse93"
   ry="7.4"
   rx="11.9"
   cy="282.3"
   cx="171.2"
   class="st21" />
	</g>
	<g
   id="g103"
   class="st7">
		<path
   id="path97"
   d="M281.9,313.4c0,0,2.5-28.4,16.6-44.5c2.3-2.6,17.4-22.3,41.6-15.3c21.8,6.3,29.3,20.6,29.3,20.6    s3.7,23.2-29.3,42.1C315.4,330.4,281.9,313.4,281.9,313.4z"
   class="st20" />
		<path
   id="path99"
   d="M342.3,255.9c0,0,3.5,53.4-21.3,52.8c-24.8-0.5-22.4-41.9-22.4-41.9S312.6,244.5,342.3,255.9z" />
		<ellipse
   id="ellipse101"
   ry="7.4"
   rx="11.9"
   cy="282.3"
   cx="342.9"
   class="st21" />
	</g>
</g>
<g
   inkscape:label="Layer 1"
   id="layer1"
   inkscape:groupmode="layer"><g
     transform="translate(-166.24941,69.872941)"
     id="g993"><g
       transform="translate(-0.8518557,2)"
       id="g1093"><path
         sodipodi:nodetypes="ccccccccc"
         id="path981"
         d="m 370.22393,133.31541 -19.59268,-40.889067 51.44464,-8.51856 24.27789,-41.314998 24.69495,40.68238 45.49052,7.873393 -16.61119,42.166852 -53.57428,8.38892 z"
         style="fill:#fff7eb;fill-opacity:1;stroke:#302f2c;stroke-width:7;stroke-linecap:butt;stroke-linejoin:miter;stroke-miterlimit:4;stroke-dasharray:none;stroke-opacity:1" /><path
         sodipodi:nodetypes="ccc"
         id="path983"
         d="m 351.4831,92.426343 74.5695,11.551727 70.91257,-9.848015"
         style="fill:none;stroke:#302f2c;stroke-width:7;stroke-linecap:butt;stroke-linejoin:miter;stroke-miterlimit:4;stroke-dasharray:none;stroke-opacity:1" /><path
         sodipodi:nodetypes="cc"
         id="path985"
         d="m 403.67312,81.352219 -9.26393,17.037114"
         style="fill:none;stroke:#302f2c;stroke-width:7;stroke-linecap:butt;stroke-linejoin:miter;stroke-miterlimit:4;stroke-dasharray:none;stroke-opacity:1" /><path
         sodipodi:nodetypes="cc"
         id="path987"
         d="m 450.42498,82.277153 8.21737,14.709646"
         style="fill:none;stroke:#302f2c;stroke-width:7;stroke-linecap:butt;stroke-linejoin:miter;stroke-miterlimit:4;stroke-dasharray:none;stroke-opacity:1" /><path
         style="fill:none;stroke:#ffa0a0;stroke-width:2;stroke-linecap:butt;stroke-linejoin:miter;stroke-miterlimit:4;stroke-dasharray:none;stroke-opacity:1"
         d="m 376.93311,99.324215 13.34946,33.087845"
         id="path995"
         sodipodi:nodetypes="cc" /><path
         style="fill:none;stroke:#c8d2f1;stroke-width:2;stroke-linecap:butt;stroke-linejoin:miter;stroke-miterlimit:4;stroke-dasharray:none;stroke-opacity:1"
         d="m 361.23615,106.73653 64.40332,10.12335 59.84287,-7.84312"
         id="path997"
         sodipodi:nodetypes="ccc" /><path
         id="path997-5"
         d="m 367.41211,119.23903 58.65329,8.57022 55.37062,-7.93132"
         style="fill:none;stroke:#c8d2f1;stroke-width:2;stroke-linecap:butt;stroke-linejoin:miter;stroke-miterlimit:4;stroke-dasharray:none;stroke-opacity:1"
         sodipodi:nodetypes="ccc" /><path
         id="path1014-2"
         d="m 410.9232,76.288621 14.85707,4.004892 16.18107,-4.506808"
         style="fill:none;stroke:#c8d2f1;stroke-width:2;stroke-linecap:butt;stroke-linejoin:miter;stroke-miterlimit:4;stroke-dasharray:none;stroke-opacity:1"
         sodipodi:nodetypes="ccc" /><path
         sodipodi:nodetypes="ccc"
         style="fill:none;stroke:#c8d2f1;stroke-width:2;stroke-linecap:butt;stroke-linejoin:miter;stroke-miterlimit:4;stroke-dasharray:none;stroke-opacity:1"
         d="m 405.18073,85.878637 20.96309,4.90399 21.40181,-5.89421"
         id="path1014-2-1" /><path
         sodipodi:nodetypes="ccc"
         style="fill:none;stroke:#c8d2f1;stroke-width:2;stroke-linecap:butt;stroke-linejoin:miter;stroke-miterlimit:4;stroke-dasharray:none;stroke-opacity:1"
         d="m 420.80149,59.179338 5.49292,1.397653 5.46163,-1.572556"
         id="path1014-2-6" /><path
         id="path1014-2-6-0"
         d="m 416.43442,67.160514 9.40822,2.903535 11.03339,-2.927851"
         style="fill:none;stroke:#c8d2f1;stroke-width:2;stroke-linecap:butt;stroke-linejoin:miter;stroke-miterlimit:4;stroke-dasharray:none;stroke-opacity:1"
         sodipodi:nodetypes="ccc" /></g></g></g></svg>
